<?xml version="1.0"?>
<svg xmlns="http://www.w3.org/2000/svg" viewBox="0 0 32 32">
    <path style="text-indent:0;text-align:start;line-height:normal;text-transform:none;block-progression:tb;-inkscape-font-specification:Bitstream Vera Sans" d="M 23 5 L 23 7 L 28 7 L 28 5 L 23 5 z M 12 5.09375 L 11.15625 6.46875 C 11.15625 6.46875 9.6438208 8.9099194 8.125 11.78125 C 7.3655896 13.216915 6.5825217 14.764497 6 16.1875 C 5.4174783 17.610503 5 18.86975 5 20 C 5 23.854334 8.1456661 27 12 27 C 15.854334 27 19 23.854334 19 20 C 19 18.86975 18.582522 17.610503 18 16.1875 C 17.417478 14.764497 16.63441 13.216915 15.875 11.78125 C 14.356179 8.9099194 12.84375 6.46875 12.84375 6.46875 L 12 5.09375 z M 12 9 C 12.517466 9.8591384 13.063585 10.712144 14.125 12.71875 C 14.700679 13.80707 15.242488 14.921727 15.71875 16 L 8.28125 16 C 8.7575122 14.921727 9.2993218 13.80707 9.875 12.71875 C 10.936415 10.712144 11.482534 9.8591384 12 9 z M 25 10 L 25 12 L 28 12 L 28 10 L 25 10 z M 23 15 L 23 17 L 28 17 L 28 15 L 23 15 z M 25 20 L 25 22 L 28 22 L 28 20 L 25 20 z M 23 25 L 23 27 L 28 27 L 28 25 L 23 25 z" fill="#fff"/>
</svg>
