<?xml version="1.0"?>
<svg xmlns="http://www.w3.org/2000/svg" viewBox="0 0 32 32">
    <path style="text-indent:0;text-align:start;line-height:normal;text-transform:none;block-progression:tb;-inkscape-font-specification:Bitstream Vera Sans" d="M 7 5 L 7 8 C 7 9.163336 7.3112908 10.072789 7.5625 10.84375 C 7.8137092 11.614711 8 12.243253 8 13 C 8 13.578494 7.658444 14.161861 7.15625 14.9375 C 6.654056 15.713139 6 16.68247 6 18 C 6 19.146765 6.3135339 20.034601 6.5625 20.78125 C 6.8114661 21.527899 7 22.137602 7 23 L 4 23 L 8 27 L 12 23 L 9 23 C 9 21.812398 8.6885339 20.909101 8.4375 20.15625 C 8.1864661 19.403399 8 18.805235 8 18 C 8 17.36553 8.345944 16.768861 8.84375 16 C 9.341556 15.231139 10 14.291506 10 13 C 10 11.886747 9.6862908 11.013539 9.4375 10.25 C 9.1887092 9.4864612 9 8.828664 9 8 L 9 5 L 7 5 z M 16 5 L 16 8 C 16 9.163336 16.311291 10.072789 16.5625 10.84375 C 16.813709 11.614711 17 12.243253 17 13 C 17 13.578494 16.658444 14.161861 16.15625 14.9375 C 15.654056 15.713139 15 16.68247 15 18 C 15 19.146765 15.313534 20.034601 15.5625 20.78125 C 15.811466 21.527899 16 22.137602 16 23 L 13 23 L 17 27 L 21 23 L 18 23 C 18 21.812398 17.688534 20.909101 17.4375 20.15625 C 17.186466 19.403399 17 18.805235 17 18 C 17 17.36553 17.345944 16.768861 17.84375 16 C 18.341556 15.231139 19 14.291506 19 13 C 19 11.886747 18.686291 11.013539 18.4375 10.25 C 18.188709 9.4864612 18 8.828664 18 8 L 18 5 L 16 5 z M 23 5 L 23 7 L 28 7 L 28 5 L 23 5 z M 25 10 L 25 12 L 28 12 L 28 10 L 25 10 z M 23 15 L 23 17 L 28 17 L 28 15 L 23 15 z M 25 20 L 25 22 L 28 22 L 28 20 L 25 20 z M 23 25 L 23 27 L 28 27 L 28 25 L 23 25 z" fill="#fff"/>
</svg>
