<?xml version="1.0"?>
<svg xmlns="http://www.w3.org/2000/svg" viewBox="0 0 50 50">
    <path style="line-height:normal;text-indent:0;text-align:start;text-decoration-line:none;text-decoration-style:solid;text-decoration-color:#fff;text-transform:none;block-progression:tb;isolation:auto;mix-blend-mode:normal" d="M 21.5 6 C 15.71 6 11 10.71 11 16.5 C 11 16.665 11.003672 16.831 11.013672 17 L 11 17 C 6.589 17 3 20.589 3 25 C 3 27.956 4.6168125 30.536875 7.0078125 31.921875 C 7.0438125 30.574875 7.9697031 29.454234 9.2207031 29.115234 C 9.0807031 28.769234 9 28.395 9 28 C 9 26.346 10.346 25 12 25 L 17.679688 25 C 17.101688 24.199 16.928406 23.128578 17.316406 22.142578 C 18.305406 19.626578 20.684 18 23.375 18 C 26.959 18 29.875 20.916 29.875 24.5 C 29.875 26.246 29.178688 27.831 28.054688 29 L 31 29 C 33.795 29 36.2575 30.444047 37.6875 32.623047 C 41.8995 31.444047 45 27.582 45 23 C 45 17.486 40.514 13 35 13 C 33.822 13 32.677984 13.201516 31.583984 13.603516 C 30.317984 9.1295156 26.26 6 21.5 6 z M 23.375 20 C 23.137378 20 22.902905 20.019044 22.673828 20.054688 C 22.625711 20.062276 22.5808 20.07878 22.533203 20.087891 C 21.244992 20.331181 20.128822 21.117399 19.470703 22.267578 C 19.470703 22.267578 19.46875 22.269531 19.46875 22.269531 C 19.35746 22.462535 19.260033 22.663778 19.177734 22.873047 A 1.000123 1.000123 0 0 0 19.109375 23.265625 A 1.000123 1.000123 0 0 0 19.189453 23.632812 C 19.191072 23.636614 19.191694 23.64075 19.193359 23.644531 A 1.000123 1.000123 0 0 0 19.402344 23.947266 C 19.406309 23.951229 19.410025 23.955083 19.414062 23.958984 A 1.000123 1.000123 0 0 0 19.728516 24.164062 C 19.733528 24.16613 19.737124 24.169881 19.742188 24.171875 C 19.74729 24.173873 19.7527 24.17192 19.757812 24.173828 A 1.000123 1.000123 0 0 0 20.095703 24.238281 C 20.098966 24.238313 20.102209 24.240234 20.105469 24.240234 C 20.110121 24.240234 20.114494 24.238346 20.119141 24.238281 A 1.000123 1.000123 0 0 0 20.384766 24.199219 C 20.393933 24.196568 20.403026 24.194314 20.412109 24.191406 A 1.000123 1.000123 0 0 0 20.664062 24.070312 C 20.665597 24.069292 20.666439 24.067436 20.667969 24.066406 A 1.000123 1.000123 0 0 0 20.882812 23.873047 C 20.884611 23.870847 20.884937 23.867452 20.886719 23.865234 A 1.000123 1.000123 0 0 0 21.039062 23.607422 C 21.039062 23.607422 21.039062 23.605469 21.039062 23.605469 C 21.08614 23.485761 21.141809 23.37172 21.205078 23.261719 C 21.228685 23.220643 21.257568 23.183945 21.283203 23.144531 C 21.348424 23.044271 21.419995 22.949001 21.498047 22.859375 C 21.799344 22.51393 22.184004 22.255196 22.619141 22.117188 C 22.735959 22.080369 22.85636 22.050666 22.980469 22.03125 C 23.109706 22.010686 23.240898 22 23.375 22 C 23.71375 22 24.04 22.070703 24.337891 22.199219 C 24.337891 22.199219 24.339844 22.199219 24.339844 22.199219 C 24.934378 22.456198 25.418802 22.942575 25.675781 23.537109 C 25.804297 23.835 25.875 24.16125 25.875 24.5 C 25.875 24.83875 25.804297 25.165 25.675781 25.462891 C 25.675781 25.462891 25.675781 25.464844 25.675781 25.464844 C 25.418802 26.059378 24.932425 26.543802 24.337891 26.800781 C 24.04 26.929297 23.71375 27 23.375 27 L 12 27 A 1.0001 1.0001 0 1 0 12 29 L 23.375 29 A 1.0001 1.0001 0 0 0 23.59375 28.978516 C 23.825974 28.96692 24.059128 28.95443 24.28125 28.908203 C 26.038378 28.54763 27.424091 27.159997 27.783203 25.402344 C 27.843635 25.110719 27.875 24.808257 27.875 24.5 C 27.875 24.19044 27.844134 23.886523 27.783203 23.59375 C 27.42263 21.836622 26.034997 20.450909 24.277344 20.091797 C 23.985719 20.031365 23.683257 20 23.375 20 z M 10 31 A 1.0001 1.0001 0 1 0 10 33 L 31 33 C 33.219179 33 34.998047 34.778868 34.998047 36.998047 C 34.998047 39.214475 33.232399 40.90684 30.970703 40.996094 C 29.258559 41.035124 27.906785 40.050913 27.306641 38.378906 A 1.0002082 1.0002082 0 1 0 25.423828 39.054688 C 26.280895 41.442482 28.468785 43.060268 31.023438 42.998047 A 1.0001 1.0001 0 0 0 31.037109 42.998047 C 34.291378 42.875422 36.998047 40.298868 36.998047 36.998047 C 36.998048 34.30344 35.20011 32.012841 32.744141 31.261719 C 32.744141 31.261719 32.742188 31.261719 32.742188 31.261719 C 32.735145 31.259569 32.727756 31.257984 32.720703 31.255859 C 32.487794 31.185657 32.24759 31.133339 32.003906 31.091797 C 31.932501 31.079558 31.86129 31.068263 31.789062 31.058594 C 31.564489 31.028717 31.336984 31.009939 31.105469 31.005859 A 1.0001 1.0001 0 0 0 31 31 L 10 31 z M 8 35 A 1.0001 1.0001 0 1 0 8 37 L 17 37 C 18.087154 37 19 37.912846 19 39 C 19 40.087154 18.087154 41 17 41 C 16.207816 41 15.564959 40.57523 15.253906 39.953125 A 1.0001161 1.0001161 0 1 0 13.464844 40.847656 C 14.113791 42.145551 15.472184 43 17 43 C 19.192846 43 21 41.192846 21 39 C 21 36.882 19.309721 35.139037 17.21875 35.021484 A 1.0001 1.0001 0 0 0 17 35 L 8 35 z" font-weight="400" font-family="sans-serif" white-space="normal" overflow="visible" fill="#fff"/>
</svg>
